control3min_grf.mot
version=1
nRows=17
nColumns 19
inDegrees=yes
endheader
time	1_ground_force_vx	1_ground_force_vy	1_ground_force_vz	1_ground_force_px	1_ground_force_py	1_ground_force_pz	1_ground_torque_x	1_ground_torque_y	1_ground_torque_z	2_ground_force_vx	2_ground_force_vy	2_ground_force_vz	2_ground_force_px	2_ground_force_py	2_ground_force_pz	2_ground_torque_x	2_ground_torque_y	2_ground_torque_z
            0.005000	            6.013126	          403.994278	           -2.409955	           -0.156868	            0.006322	           -0.425258	            0.010587	            0.711262	           -0.004243	            4.700197	          321.865917	           14.192061	           -0.158860	            0.005770	           -0.658441	           -0.013431	           -0.919774	           -0.040556
            0.005500	            6.106057	          399.667133	           -2.245310	           -0.156641	            0.006322	           -0.425247	            0.010740	            0.702962	           -0.003949	            4.619708	          318.183252	           13.991248	           -0.158971	            0.005770	           -0.658532	           -0.011957	           -0.823511	           -0.036212
            0.006000	            6.152513	          394.439997	           -2.405408	           -0.156286	            0.006325	           -0.425803	            0.010809	            0.692946	           -0.004226	            4.822353	          313.948844	           13.882199	           -0.158396	            0.005771	           -0.658328	           -0.013310	           -0.866550	           -0.038317
            0.006500	            6.108385	          390.652670	           -2.008823	           -0.156454	            0.006322	           -0.425099	            0.012454	            0.796448	           -0.004096	            4.647519	          310.449874	           13.729011	           -0.158725	            0.005771	           -0.658585	           -0.012110	           -0.808940	           -0.035774
            0.007000	            6.201382	          385.964993	           -1.845724	           -0.156338	            0.006322	           -0.425244	            0.012985	            0.808159	           -0.003865	            4.943158	          306.400280	           13.526723	           -0.158680	            0.005770	           -0.658356	           -0.012556	           -0.778272	           -0.034359
            0.007500	            6.293418	          382.179991	           -1.999751	           -0.156400	            0.006322	           -0.425175	            0.012626	            0.766708	           -0.004012	            4.582151	          302.533128	           13.137660	           -0.158374	            0.005772	           -0.658592	           -0.010848	           -0.716225	           -0.031102
            0.008000	            6.066035	          377.130935	           -1.653978	           -0.156097	            0.006323	           -0.425325	            0.010078	            0.626544	           -0.002748	            5.113389	          298.115931	           12.980887	           -0.158407	            0.005771	           -0.658148	           -0.013417	           -0.782206	           -0.034060
            0.008500	            5.975708	          372.803558	           -1.443022	           -0.156121	            0.006324	           -0.425564	            0.008768	            0.547011	           -0.002117	            4.937329	          294.984406	           13.063653	           -0.158456	            0.005769	           -0.657810	           -0.012628	           -0.754445	           -0.033411
            0.009000	            6.251295	          368.657925	           -1.553195	           -0.156034	            0.006324	           -0.425606	            0.009166	            0.540539	           -0.002277	            5.090301	          291.487792	           12.581828	           -0.158412	            0.005771	           -0.658280	           -0.013492	           -0.772585	           -0.033348
            0.009500	            6.481608	          364.511238	           -1.433974	           -0.156311	            0.006324	           -0.425513	            0.011157	            0.627439	           -0.002468	            5.056703	          287.804960	           12.474850	           -0.158257	            0.005772	           -0.658448	           -0.013004	           -0.740144	           -0.032081
            0.010000	            6.436606	          359.283752	           -1.502132	           -0.155508	            0.006326	           -0.425958	            0.011708	            0.653524	           -0.002732	            5.538350	          284.124888	           12.133013	           -0.158292	            0.005771	           -0.658233	           -0.014878	           -0.763278	           -0.032594
            0.010500	            6.529767	          353.694717	           -1.342898	           -0.155435	            0.006328	           -0.426507	            0.012852	            0.696134	           -0.002643	            5.178152	          280.072423	           12.071789	           -0.157974	            0.005771	           -0.657764	           -0.012425	           -0.672011	           -0.028965
            0.011000	            6.392765	          350.810439	           -1.354924	           -0.155722	            0.006326	           -0.425994	            0.011032	            0.605376	           -0.002338	            5.331953	          276.390330	           11.964732	           -0.157882	            0.005771	           -0.657726	           -0.011555	           -0.598952	           -0.025928
            0.011500	            6.485580	          347.744988	           -1.139012	           -0.155729	            0.006323	           -0.425313	            0.010453	            0.560465	           -0.001836	            5.339949	          274.180352	           12.003775	           -0.158654	            0.005772	           -0.658776	           -0.012002	           -0.616241	           -0.026979
            0.012000	            6.441308	          342.876596	           -0.884633	           -0.155348	            0.006326	           -0.426054	            0.009469	            0.504031	           -0.001300	            5.636170	          269.947287	           11.613119	           -0.157773	            0.005773	           -0.658197	           -0.013959	           -0.668573	           -0.028762
            0.012500	            6.441448	          338.371164	           -1.179092	           -0.155695	            0.006326	           -0.425979	            0.009018	            0.473717	           -0.001651	            5.558421	          265.527389	           11.597389	           -0.158028	            0.005770	           -0.657537	           -0.013205	           -0.630794	           -0.027551
            0.013000	            6.763447	          334.224495	           -1.060099	           -0.155306	            0.006326	           -0.425937	            0.011821	            0.584174	           -0.001853	            5.615076	          262.766664	           11.212088	           -0.158400	            0.005771	           -0.658258	           -0.013222	           -0.618735	           -0.026401
